<?xml version="1.0" encoding="utf-8"?>
<!-- Generator: Adobe Illustrator 16.0.0, SVG Export Plug-In . SVG Version: 6.00 Build 0)  -->
<!DOCTYPE svg PUBLIC "-//W3C//DTD SVG 1.1//EN" "http://www.w3.org/Graphics/SVG/1.1/DTD/svg11.dtd">
<svg version="1.1" id="Layer_1" xmlns="http://www.w3.org/2000/svg" xmlns:xlink="http://www.w3.org/1999/xlink" x="0px" y="0px"
	 width="597.075px" height="143.097px" viewBox="0 0 597.075 143.097" enable-background="new 0 0 597.075 143.097"
	 xml:space="preserve">
<path fill-rule="evenodd" clip-rule="evenodd" fill="#034EA2" d="M155.627,72.422c-1.003-0.806-2.216-1.793-2.599-2.057
	c-3.767-2.602-8.698-5.673-14.049-5.655c-0.569-2.238-1.237-3.832-2.165-5.854c-3.492-7.613-9.272-14.507-17.416-17.216
	c-2.579-0.836-5.368-1.255-8.327-1.255c-3.551,0-6.891,0.663-9.934,1.987c-3.086,1.36-5.749,3.312-7.99,5.892
	c-2.283,2.58-4.016,6.862-5.326,10.522c-1.268,3.695-1.902,7.913-1.902,12.619c0,4.497,0.676,8.854,2.029,13.037
	c1.353,4.148,3.327,7.854,5.875,11.051c2.566,3.218,5.766,5.83,9.36,7.736c-11.859,14.931-23.911,11.514-42.267,8.503
	c-12.75-2.092-29.184-2.954-45.206,0.637c-1.862,0.414-12.287,1.754-15.71,1.693C18.766,99.536,34.4,89.3,48.367,69.596
	c1.642-2.316,2.81-4.492,3.501-6.488c0.691-1.996,1.038-3.921,1.038-5.704c0-3.03-0.641-6.747-1.989-8.845
	c-1.331-2.072-3.013-3.801-5.058-5.098c-2.06-1.305-4.326-2.234-6.83-2.816c-5.814-1.351-13.288-1.231-18.359,2.342
	c-1.348,0.95-2.309,2.06-2.939,3.351c-0.623,1.274-0.908,2.603-0.908,3.993c0,2.032,0.51,5.179,1.513,7.169
	c1.027,2.036,2.688,3.524,4.583,5.062c0.188,0.153,0.212,0.443-0.26,0.678c-2.309,1.144-4.798,1.497-7.349,1.497
	c-1.556,0-3.064-0.195-4.496-0.606c-1.421-0.408-2.688-0.953-3.804-1.747c-1.087-0.773-1.954-1.742-2.637-2.923
	c-0.656-1.135-0.951-2.459-0.951-3.921c0-2.067,0.606-5.209,1.815-7.063c1.21-1.853,2.87-3.543,4.928-5.097
	c7.955-6.007,20.926-9.88,31.025-9.88c3.847,0,7.431,0.41,10.807,1.248c3.367,0.836,6.278,1.964,8.732,3.545
	c2.471,1.59,4.402,3.534,5.835,5.846c1.418,2.286,2.118,6.029,2.118,8.952c0,2.139-0.361,4.31-1.037,6.559
	c-0.663,2.206-1.802,4.575-3.415,7.023c-6.473,9.822-23.599,27.404-31.81,34.331c31.642-6.19,40.381,7.509,51.511,3.696
	c-3.023-2.729-7.949-7.986-10.02-12.519c-2.071-4.531-3.128-9.761-3.128-15.687c0-4.184,0.55-8.123,1.648-11.818
	c1.057-3.694,2.579-7.076,4.523-10.179c1.987-3.102,4.313-7.036,7.06-9.476c2.748-2.44,5.792-4.532,9.131-6.24
	s6.933-2.998,10.78-3.904c3.847-0.906,7.82-1.359,11.963-1.359c5.749,0,11.033,0.802,15.936,2.371
	c8.394,2.686,17.389,11.434,20.925,19.376c2.029,4.497,2.909,9.163,2.909,14.984C155.66,70.975,155.645,71.69,155.627,72.422"/>
<path fill="#034EA2" d="M64.084,139.139l2.496-1.671c0.47,0.902,1.061,1.575,1.785,2.026c0.718,0.451,1.569,0.68,2.547,0.68
	c0.953,0,1.728-0.235,2.318-0.705c0.591-0.47,0.883-1.093,0.883-1.861c0-0.591-0.203-1.086-0.604-1.486
	c-0.407-0.394-1.099-0.762-2.077-1.092l-0.483-0.172c-4.141-1.422-6.211-3.214-6.211-5.36c0-1.512,0.559-2.75,1.67-3.703
	c1.118-0.959,2.566-1.435,4.351-1.435c1.479,0,2.744,0.292,3.798,0.883c1.055,0.591,1.81,1.422,2.268,2.502l-2.356,1.454
	c-0.35-0.781-0.864-1.384-1.538-1.804c-0.679-0.425-1.46-0.635-2.356-0.635c-0.857,0-1.556,0.241-2.096,0.718
	s-0.807,1.086-0.807,1.835c0,1.042,1.131,1.919,3.385,2.624c0.426,0.14,0.762,0.241,1.01,0.317c1.842,0.597,3.131,1.276,3.855,2.038
	c0.724,0.763,1.086,1.766,1.086,3.023c0,1.607-0.572,2.915-1.721,3.912c-1.143,0.997-2.642,1.499-4.49,1.499
	c-1.588,0-2.934-0.298-4.046-0.896C65.647,141.241,64.751,140.339,64.084,139.139 M42.833,133.531c0-1.251,0.229-2.433,0.686-3.544
	c0.464-1.105,1.13-2.096,2.014-2.966c0.883-0.87,1.88-1.531,2.998-1.981c1.118-0.451,2.306-0.68,3.576-0.68
	c1.238,0,2.413,0.229,3.524,0.686c1.112,0.464,2.115,1.131,3.023,2.014c0.883,0.857,1.55,1.835,2.013,2.946
	c0.458,1.111,0.686,2.287,0.686,3.525c0,1.245-0.229,2.413-0.686,3.512c-0.463,1.1-1.13,2.077-2.013,2.929
	c-0.908,0.896-1.918,1.575-3.042,2.051c-1.125,0.471-2.293,0.705-3.506,0.705c-1.258,0-2.445-0.234-3.57-0.698
	c-1.124-0.464-2.121-1.131-3.004-2.001c-0.883-0.896-1.55-1.886-2.014-2.979C43.062,135.957,42.833,134.789,42.833,133.531z
	 M45.92,133.543c0,1.797,0.604,3.321,1.804,4.566c1.207,1.251,2.667,1.874,4.376,1.874c1.702,0,3.15-0.623,4.344-1.874
	c1.188-1.245,1.785-2.77,1.785-4.566c0-1.798-0.597-3.322-1.785-4.566c-1.194-1.251-2.642-1.874-4.344-1.874
	c-1.721,0-3.182,0.623-4.382,1.874C46.517,130.221,45.92,131.746,45.92,133.543z M36.196,117.119
	c-0.248,1.271-0.686,2.236-1.309,2.896c-0.629,0.667-1.416,0.997-2.356,0.997c-0.159,0-0.35-0.019-0.559-0.051
	c-0.209-0.038-0.432-0.089-0.667-0.152l-1.785-0.482c-0.165-0.051-0.324-0.089-0.477-0.121c-0.152-0.031-0.298-0.051-0.438-0.051
	c-0.381,0-0.711,0.114-0.991,0.33s-0.508,0.527-0.68,0.94h-1.639c0.222-1.232,0.648-2.172,1.264-2.833
	c0.623-0.66,1.397-0.99,2.325-0.99c0.209,0,0.413,0.013,0.597,0.038s0.349,0.063,0.501,0.114l1.823,0.54
	c0.286,0.076,0.496,0.12,0.629,0.146c0.14,0.025,0.26,0.038,0.375,0.038c0.406,0,0.762-0.107,1.054-0.337
	c0.286-0.222,0.521-0.564,0.692-1.022H36.196z M22.973,142.003v-17.034h2.858v2.63c0.73-1.093,1.613-1.906,2.642-2.439
	c1.029-0.533,2.223-0.8,3.57-0.8c2.013,0,3.582,0.533,4.706,1.601c1.13,1.066,1.696,2.553,1.696,4.452v11.591h-2.973v-10.029
	c0-1.727-0.362-3.004-1.086-3.842c-0.73-0.839-1.849-1.258-3.36-1.258c-0.87,0-1.664,0.159-2.375,0.477s-1.302,0.762-1.778,1.347
	c-0.356,0.444-0.616,0.959-0.769,1.523c-0.159,0.572-0.235,1.563-0.235,2.979v8.803H22.973z M17.149,124.969v17.034h-2.82v-3.087
	c-0.68,1.238-1.557,2.185-2.618,2.833c-1.06,0.654-2.248,0.978-3.563,0.978c-2.439,0-4.415-0.838-5.907-2.521
	C0.75,138.523,0,136.3,0,133.531c0-2.801,0.724-5.03,2.178-6.688c1.448-1.657,3.392-2.482,5.824-2.482
	c1.423,0,2.662,0.317,3.709,0.959c1.048,0.642,1.9,1.601,2.541,2.864v-3.214H17.149z M14.329,133.658
	c0-1.925-0.527-3.474-1.576-4.643c-1.048-1.175-2.414-1.76-4.103-1.76c-1.747,0-3.112,0.54-4.09,1.62
	c-0.985,1.079-1.474,2.585-1.474,4.521c0,2.059,0.496,3.646,1.48,4.758c0.985,1.117,2.388,1.677,4.198,1.677
	c1.734,0,3.1-0.54,4.084-1.626C13.833,137.12,14.329,135.601,14.329,133.658z"/>
<path fill-rule="evenodd" clip-rule="evenodd" fill="#00A651" d="M216.786,71.964c-0.302-0.237-0.401-0.313-0.712-0.558
	c-5.496-4.315-10.559-7.882-14.599-10.85c-3.574-2.626-9.739-7.488-12.896-8.772c-4.269-1.736-7.761-1.045-11.537,3.101
	c-2.754,3.025-5.504,7.661-8.116,11.579c-4.21,6.318-8.107,14.078-12.811,18.363c-1.363,1.242-2.707,2.089-3.682,2.633
	c-0.578,0.322-0.619,0.427-1.764,0.973c-1.19,0.566-0.361,1.438,0.817,1.003c4.903-1.81,10.852-6.262,14.225-10.153
	c4.94-5.698,9.785-11.231,13.249-14.874c2.979-3.133,4.337-3.365,6.744-2.8c2.843,0.667,7.156,3.985,11.84,6.473
	C205.28,72.19,211.436,73.866,216.786,71.964"/>
<path fill-rule="evenodd" clip-rule="evenodd" fill="#00A651" d="M142.195,80.405c3.253-1.893,6.612-2.263,9.976-1.056
	c0.396,0.142,1.3,0.592,1.982,0.98c0.404,0.23,0.768,0.508,1.165,0.745c1.53,0.912,2.303,0.013,1.27-1.046
	c-0.198-0.202-0.411-0.444-0.687-0.674c-0.833-0.691-2.629-2.19-3.077-2.503c-3.939-2.751-9.675-6.875-14.949-3.718
	c-12.928,7.741-19.003,21.133-28.091,32.401c-1.656,2.053-2.712,4.104-6.517,6.959c-0.646,0.485-1.415,0.907-2.124,1.355
	c1.781,0.48,5.258-1.056,6.342-1.813c8.987-6.276,6.591-4.925,20.306-18.393C132.389,89.128,136.538,83.696,142.195,80.405"/>
<path fill-rule="evenodd" clip-rule="evenodd" fill="#034EA2" d="M270.831,49.763c1.922-0.221,3.659,1.158,3.88,3.08
	c0.221,1.921-1.158,3.659-3.08,3.88s-3.659-1.158-3.88-3.08C267.53,51.722,268.909,49.984,270.831,49.763 M209.957,111.451
	c21.966-2.471,39.048-12.536,54.027-25.92c8.089-7.228,10.669-17.211,17.541-25.026c0.451-0.514,0.752-0.818,1.2-1.155
	c2.772-2.081,5.844-4.099,8.814-5.41c2.466-1.089,7.077-2.407,9.545-3.395c-0.528-1.129-0.675-1.688-4.128-1.489
	c-2.385,0.138-5.341,0.892-7.522-0.158c-12.109-5.829-24.32-3.402-30.358,2.322c-4.438,4.206-11.726,5.838-18.126,9.916
	c-13.346-18.055-38.166-40.49-58.234-52.576c-6.472-3.897-12.866-7.584-19.887-6.298c-6.082,1.114-13.538,7.398-15.435,13.508
	c3.448-3,8.357-6.287,12.698-7.715c8.842-2.909,15.889,2.645,21.743,6.608c20.506,13.882,50.555,48.287,53.75,55.959
	c5.236-2.545,4.898-2.974,10.553-3.81c7.399-1.094,7.97-2.528,8.813-5.154c0.95-2.958,2.061-4.071,4.664-4.62
	c5.446-1.146,6.429,4.56,12.139,3.45c3.857-0.75,4.594-2.287,6.65-4.931c1.513-1.946,3.514-1.632,6.344-1.642
	c1.698-0.006,3.527-0.025,2.702,0.389c-1.734,0.871-4.402,1.189-6.647,2.874c-5.351,4.016-9.649,13.994-14.658,19.74
	c-12.773,14.651-36.737,29.776-55.982,32.997C208.317,110.225,204.959,111.515,209.957,111.451z"/>
<path fill-rule="evenodd" clip-rule="evenodd" fill="#034EA2" d="M164.952,138.548c-9.813-2.635-20.42-6.438-32.145-4.28
	c-5.726,1.054-13.511,3.932-19.303,6.876c-2.735,1.391-6.55,1.267-4.378-1.08c5.327-5.754,14.49-10.497,21.613-11.964
	c10.412-2.146,22.37,1.088,33,4.522c7.633,2.974,15.704,6.156,24.832,7.801C181.468,144.285,171.818,140.392,164.952,138.548"/>
<path fill-rule="evenodd" clip-rule="evenodd" fill="#034EA2" d="M209.979,86.542c-5.479,8.194-9.941,11.552-15.781,16.354
	c-1.818,1.496-3.697,2.744-5.648,4.056c2.261,0.14,3.755-0.688,5.166-1.55c8.836-5.394,16.347-11.423,24.238-19.523
	c1.522-1.563,3.264-2.896,4.775-4.446c1.413-1.45,2.159-3.336,0.293-4.802c-0.729-0.572-1.501-1.163-2.367-1.756
	c-0.41-0.28-3.599,2.534-5.677,4.801C213.085,81.74,211.529,84.221,209.979,86.542"/>
<path fill-rule="evenodd" clip-rule="evenodd" fill="#034EA2" d="M163.34,126.583c-16.997-6.23-31.934-6.314-46.346,0.545
	c-8.041,3.827-15.005,9.321-25.239,3.597c-0.627-0.352-1.187-0.526-0.356-1.18l1.567-1.233l6.356-4.523
	c16.585-11.761,37.226-12.306,55.616-5.085c21.593,7.909,42.523,12.996,57.699,11.705c11.804-1.004,21.663-3.752,28.758-9.951
	c5.152-4.502,9.905-9.357,6.256-16.268c-1.079-2.044-0.026-2.917,1.49-1.295c4.715,5.05,3.662,13.262-0.67,19.123
	c-7.336,9.927-20.63,15.765-35.628,16.021C194.863,138.347,175.26,130.948,163.34,126.583"/>
<path fill="#034EA2" d="M451.506,138.382l4.04-2.198c0.299,1.062,0.85,1.87,1.66,2.419c0.805,0.558,1.845,0.832,3.107,0.832
	c1.095,0,1.951-0.252,2.571-0.748c0.62-0.504,0.926-1.183,0.926-2.052c0-1.145-1.102-2.129-3.313-2.953
	c-0.742-0.267-1.323-0.488-1.722-0.672c-2.272-0.938-3.864-1.892-4.768-2.86c-0.903-0.962-1.354-2.145-1.354-3.525
	c0-1.893,0.742-3.426,2.228-4.608c1.492-1.175,3.458-1.763,5.907-1.763c1.646,0,3.054,0.306,4.225,0.908s2.027,1.457,2.563,2.579
	l-3.451,2.373c-0.253-0.672-0.696-1.206-1.332-1.603c-0.635-0.396-1.37-0.596-2.204-0.596c-0.926,0-1.668,0.222-2.227,0.656
	c-0.559,0.443-0.842,1.03-0.842,1.763c0,1.099,1.255,2.105,3.758,3.014c0.795,0.282,1.407,0.52,1.836,0.694
	c1.959,0.778,3.359,1.648,4.209,2.625c0.842,0.977,1.263,2.197,1.263,3.654c0,2.121-0.772,3.777-2.311,4.975
	c-1.539,1.198-3.658,1.801-6.367,1.801c-2.074,0-3.803-0.389-5.173-1.16C453.357,141.16,452.286,139.977,451.506,138.382
	 M442.506,131.561c0-2.189-0.513-3.898-1.537-5.12c-1.026-1.228-2.457-1.838-4.294-1.838c-1.844,0-3.29,0.633-4.339,1.892
	c-1.056,1.259-1.584,3.014-1.584,5.25c0,2.25,0.505,3.99,1.522,5.211c1.019,1.228,2.457,1.839,4.309,1.839
	c1.752,0,3.176-0.664,4.271-1.991C441.955,135.475,442.506,133.728,442.506,131.561z M447.235,142.227h-4.867v-2.738
	c-0.864,1.213-1.883,2.121-3.038,2.716c-1.163,0.595-2.486,0.893-3.987,0.893c-2.999,0-5.372-1.022-7.093-3.074
	c-1.729-2.045-2.595-4.853-2.595-8.416c0-3.38,0.88-6.111,2.647-8.187c1.768-2.083,4.071-3.121,6.911-3.121
	c1.736,0,3.221,0.358,4.453,1.084c1.232,0.717,2.135,1.755,2.701,3.104v-3.456h4.867V142.227z M415.408,142.227v-34.654h4.867
	v34.654H415.408z M393.193,138.382l4.04-2.198c0.299,1.062,0.85,1.87,1.66,2.419c0.805,0.558,1.845,0.832,3.107,0.832
	c1.094,0,1.951-0.252,2.571-0.748c0.619-0.504,0.926-1.183,0.926-2.052c0-1.145-1.102-2.129-3.313-2.953
	c-0.742-0.267-1.323-0.488-1.722-0.672c-2.272-0.938-3.864-1.892-4.768-2.86c-0.903-0.962-1.354-2.145-1.354-3.525
	c0-1.893,0.742-3.426,2.227-4.608c1.492-1.175,3.459-1.763,5.908-1.763c1.646,0,3.054,0.306,4.224,0.908
	c1.172,0.603,2.028,1.457,2.564,2.579l-3.451,2.373c-0.253-0.672-0.697-1.206-1.332-1.603s-1.37-0.596-2.204-0.596
	c-0.926,0-1.668,0.222-2.227,0.656c-0.559,0.443-0.842,1.03-0.842,1.763c0,1.099,1.255,2.105,3.757,3.014
	c0.796,0.282,1.408,0.52,1.837,0.694c1.959,0.778,3.359,1.648,4.209,2.625c0.842,0.977,1.263,2.197,1.263,3.654
	c0,2.121-0.772,3.777-2.312,4.975c-1.538,1.198-3.657,1.801-6.366,1.801c-2.074,0-3.804-0.389-5.173-1.16
	C395.045,141.16,393.974,139.977,393.193,138.382z M383.038,142.227v-32.731h5.325v32.731H383.038z M358.564,129.089
	c-0.191-1.519-0.772-2.679-1.744-3.472c-0.972-0.802-2.304-1.198-3.987-1.198c-1.599,0-2.885,0.389-3.856,1.16
	c-0.965,0.778-1.646,1.945-2.036,3.51H358.564z M363.615,132.339h-16.988c0.122,1.983,0.712,3.532,1.775,4.646
	c1.056,1.114,2.472,1.671,4.239,1.671c1.569,0,2.878-0.328,3.918-0.984c1.049-0.656,1.96-1.717,2.74-3.182l4.086,2.281
	c-1.193,2.137-2.67,3.716-4.438,4.762c-1.76,1.045-3.834,1.563-6.206,1.563c-3.413,0-6.122-1.037-8.143-3.105
	c-2.013-2.075-3.022-4.837-3.022-8.293c0-3.327,1.041-6.051,3.13-8.194c2.081-2.137,4.76-3.205,8.035-3.205
	c3.421,0,6.092,0.977,8.005,2.93c1.913,1.946,2.869,4.685,2.869,8.194V132.339z M331.566,107.573h4.867v34.654h-4.867v-2.738
	c-0.864,1.213-1.883,2.121-3.038,2.716c-1.163,0.595-2.487,0.893-3.987,0.893c-2.999,0-5.371-1.022-7.094-3.074
	c-1.729-2.045-2.594-4.853-2.594-8.416c0-3.38,0.88-6.111,2.647-8.187c1.768-2.083,4.071-3.121,6.91-3.121
	c1.737,0,3.222,0.358,4.454,1.084c1.232,0.717,2.135,1.755,2.701,3.104V107.573z M331.705,131.561c0-2.189-0.514-3.898-1.539-5.12
	c-1.025-1.228-2.456-1.838-4.293-1.838c-1.844,0-3.29,0.633-4.339,1.892c-1.056,1.259-1.584,3.014-1.584,5.25
	c0,2.25,0.505,3.99,1.522,5.211c1.019,1.228,2.457,1.839,4.309,1.839c1.76,0,3.191-0.664,4.285-1.984
	C331.153,135.491,331.705,133.744,331.705,131.561z M574.551,96.683V75.487h4.577v3.479c0.972-1.465,2.111-2.533,3.428-3.204
	c1.316-0.672,2.916-1.008,4.806-1.008c1.584,0,2.932,0.252,4.049,0.748c1.109,0.504,1.981,1.243,2.609,2.228
	c0.375,0.58,0.643,1.259,0.812,2.037c0.16,0.771,0.244,2.129,0.244,4.067v12.849h-4.913v-10.88c0-2.785-0.336-4.64-1.018-5.555
	c-0.681-0.916-1.89-1.374-3.627-1.374c-1.133,0-2.15,0.206-3.038,0.626s-1.592,1.007-2.097,1.763
	c-0.36,0.511-0.612,1.159-0.75,1.961c-0.146,0.793-0.215,2.06-0.215,3.807v9.652H574.551z M554.54,72.283l4.271-6.089h5.051
	l-6.559,6.089H554.54z M546,86.108c0-1.549,0.298-3.014,0.888-4.388c0.589-1.381,1.438-2.609,2.54-3.677
	c1.095-1.061,2.35-1.87,3.773-2.441c1.423-0.565,2.907-0.848,4.461-0.848c1.6,0,3.107,0.282,4.522,0.848
	c1.408,0.571,2.679,1.403,3.804,2.502c1.117,1.091,1.967,2.319,2.556,3.693c0.582,1.365,0.872,2.808,0.872,4.311
	c0,1.563-0.29,3.036-0.864,4.402c-0.573,1.373-1.416,2.586-2.525,3.647c-1.163,1.113-2.456,1.96-3.88,2.532
	c-1.416,0.572-2.916,0.862-4.484,0.862c-1.538,0-3.022-0.29-4.438-0.862c-1.423-0.572-2.686-1.403-3.796-2.487
	c-1.117-1.106-1.967-2.342-2.556-3.716C546.29,89.122,546,87.657,546,86.108z M564.273,86.154c0-1.969-0.635-3.64-1.905-5.005
	c-1.27-1.366-2.823-2.045-4.66-2.045c-1.821,0-3.375,0.679-4.653,2.045c-1.277,1.365-1.912,3.036-1.912,5.005
	c0,1.968,0.635,3.64,1.912,5.005c1.278,1.366,2.832,2.045,4.653,2.045s3.375-0.679,4.652-2.045
	C563.639,89.793,564.273,88.122,564.273,86.154z M535.753,96.683V75.487h4.867v21.196H535.753z M535.11,66.331
	c0-0.816,0.306-1.526,0.91-2.128c0.604-0.595,1.324-0.893,2.166-0.893c0.864,0,1.592,0.29,2.165,0.862
	c0.574,0.572,0.865,1.297,0.865,2.159c0,0.87-0.291,1.595-0.873,2.183c-0.589,0.587-1.308,0.885-2.157,0.885
	c-0.842,0-1.562-0.305-2.166-0.908C535.416,67.888,535.11,67.17,535.11,66.331z M530.557,81.53c-0.75-0.816-1.615-1.442-2.609-1.869
	c-0.995-0.435-2.066-0.648-3.222-0.648c-1.982,0-3.574,0.641-4.775,1.923c-1.194,1.281-1.791,2.976-1.791,5.097
	c0,2.205,0.604,3.937,1.806,5.195c1.202,1.259,2.862,1.885,4.99,1.885c1.179,0,2.234-0.221,3.16-0.656
	c0.926-0.442,1.737-1.106,2.441-1.999v5.585c-0.896,0.504-1.859,0.878-2.885,1.13c-1.019,0.251-2.112,0.381-3.26,0.381
	c-3.337,0-6.054-1.061-8.15-3.174c-2.104-2.113-3.153-4.86-3.153-8.225c0-3.411,1.087-6.165,3.261-8.256
	c2.181-2.098,5.02-3.144,8.54-3.144c1.102,0,2.119,0.107,3.046,0.328c0.926,0.214,1.798,0.55,2.602,1V81.53z M504.155,86.016
	c0-2.189-0.513-3.898-1.538-5.119c-1.025-1.229-2.456-1.839-4.293-1.839c-1.845,0-3.291,0.633-4.339,1.892
	c-1.057,1.259-1.584,3.015-1.584,5.25c0,2.25,0.505,3.99,1.522,5.211c1.018,1.229,2.456,1.839,4.309,1.839
	c1.752,0,3.176-0.664,4.27-1.991C503.604,89.93,504.155,88.183,504.155,86.016z M508.885,96.683h-4.867v-2.739
	c-0.865,1.213-1.883,2.121-3.038,2.716c-1.163,0.596-2.487,0.893-3.987,0.893c-3,0-5.372-1.022-7.094-3.074
	c-1.729-2.045-2.594-4.853-2.594-8.416c0-3.38,0.88-6.111,2.647-8.187c1.768-2.083,4.071-3.121,6.91-3.121
	c1.737,0,3.222,0.358,4.454,1.084c1.231,0.717,2.135,1.755,2.701,3.105v-3.457h4.867V96.683z M474.662,97.964l-11.149-22.478h5.318
	l4.645,10.667c0.146,0.328,0.33,0.816,0.536,1.473c0.207,0.655,0.429,1.441,0.65,2.35c0.153-0.641,0.329-1.281,0.528-1.915
	c0.198-0.633,0.444-1.267,0.727-1.907l4.623-10.667h5.287L474.662,97.964z M453.312,78.875c0.528-1.403,1.217-2.441,2.074-3.112
	c0.864-0.672,1.928-1.008,3.206-1.008c0.688,0,1.362,0.084,2.028,0.244c0.665,0.16,1.323,0.404,1.966,0.71l-1.752,4.128
	c-0.421-0.298-0.872-0.52-1.354-0.656c-0.489-0.146-1.033-0.214-1.63-0.214c-1.622,0-2.778,0.641-3.482,1.931
	c-0.704,1.289-1.056,3.456-1.056,6.492v9.294h-4.867V75.441h4.867V78.875z M438.335,83.544c-0.19-1.519-0.772-2.679-1.744-3.472
	c-0.972-0.802-2.304-1.198-3.987-1.198c-1.599,0-2.885,0.39-3.856,1.16c-0.965,0.778-1.646,1.945-2.036,3.51H438.335z
	 M443.386,86.794h-16.988c0.123,1.983,0.712,3.533,1.775,4.646c1.056,1.114,2.472,1.671,4.239,1.671
	c1.569,0,2.878-0.328,3.918-0.984c1.049-0.656,1.959-1.717,2.74-3.182l4.086,2.281c-1.193,2.137-2.671,3.716-4.438,4.762
	c-1.76,1.045-3.833,1.563-6.206,1.563c-3.413,0-6.122-1.037-8.143-3.104c-2.013-2.076-3.022-4.838-3.022-8.294
	c0-3.327,1.041-6.051,3.13-8.194c2.081-2.137,4.76-3.205,8.035-3.205c3.421,0,6.092,0.977,8.005,2.931
	c1.913,1.945,2.869,4.685,2.869,8.194V86.794z M400.922,92.837l4.041-2.197c0.298,1.061,0.849,1.869,1.66,2.418
	c0.804,0.558,1.844,0.832,3.106,0.832c1.095,0,1.952-0.252,2.571-0.748c0.62-0.503,0.927-1.183,0.927-2.052
	c0-1.145-1.103-2.129-3.313-2.953c-0.742-0.267-1.324-0.488-1.723-0.671c-2.272-0.938-3.864-1.893-4.767-2.861
	c-0.903-0.962-1.355-2.145-1.355-3.525c0-1.892,0.742-3.426,2.228-4.608c1.492-1.175,3.459-1.763,5.907-1.763
	c1.646,0,3.054,0.306,4.225,0.908s2.028,1.457,2.563,2.579l-3.451,2.373c-0.253-0.672-0.696-1.206-1.332-1.603
	c-0.635-0.396-1.369-0.595-2.203-0.595c-0.926,0-1.669,0.221-2.227,0.656c-0.56,0.442-0.843,1.029-0.843,1.762
	c0,1.099,1.255,2.106,3.758,3.015c0.796,0.281,1.408,0.519,1.837,0.693c1.959,0.778,3.359,1.648,4.209,2.625
	c0.842,0.977,1.263,2.197,1.263,3.654c0,2.122-0.773,3.777-2.312,4.975c-1.538,1.198-3.658,1.801-6.367,1.801
	c-2.073,0-3.803-0.389-5.173-1.159C402.774,95.615,401.702,94.432,400.922,92.837z M376.364,96.683V75.487h4.576v3.479
	c0.973-1.465,2.113-2.533,3.429-3.204c1.316-0.672,2.916-1.008,4.807-1.008c1.584,0,2.931,0.252,4.048,0.748
	c1.109,0.504,1.981,1.243,2.609,2.228c0.375,0.58,0.643,1.259,0.811,2.037c0.161,0.771,0.245,2.129,0.245,4.067v12.849h-4.913
	v-10.88c0-2.785-0.336-4.64-1.018-5.555c-0.681-0.916-1.89-1.374-3.627-1.374c-1.133,0-2.15,0.206-3.038,0.626
	s-1.592,1.007-2.097,1.763c-0.36,0.511-0.612,1.159-0.75,1.961c-0.146,0.793-0.215,2.06-0.215,3.807v9.652H376.364z M347.813,86.108
	c0-1.549,0.299-3.014,0.889-4.388c0.589-1.381,1.438-2.609,2.54-3.677c1.095-1.061,2.35-1.87,3.772-2.441
	c1.424-0.565,2.908-0.848,4.462-0.848c1.6,0,3.107,0.282,4.522,0.848c1.408,0.571,2.679,1.403,3.804,2.502
	c1.117,1.091,1.967,2.319,2.556,3.693c0.582,1.365,0.873,2.808,0.873,4.311c0,1.563-0.291,3.036-0.865,4.402
	c-0.574,1.373-1.416,2.586-2.525,3.647c-1.163,1.113-2.456,1.96-3.88,2.532c-1.416,0.572-2.916,0.862-4.484,0.862
	c-1.538,0-3.022-0.29-4.438-0.862c-1.423-0.572-2.686-1.403-3.796-2.487c-1.117-1.106-1.967-2.342-2.556-3.716
	C348.104,89.122,347.813,87.657,347.813,86.108z M366.088,86.154c0-1.969-0.636-3.64-1.906-5.005
	c-1.27-1.366-2.823-2.045-4.66-2.045c-1.821,0-3.375,0.679-4.652,2.045c-1.278,1.365-1.913,3.036-1.913,5.005
	c0,1.968,0.635,3.64,1.913,5.005c1.277,1.366,2.831,2.045,4.652,2.045s3.375-0.679,4.652-2.045
	C365.452,89.793,366.088,88.122,366.088,86.154z M343.168,71.917c-1.508-1.282-3.106-2.243-4.782-2.884
	c-1.685-0.641-3.452-0.961-5.304-0.961c-3.581,0-6.497,1.145-8.747,3.441c-2.25,2.296-3.375,5.265-3.375,8.919
	c0,3.525,1.095,6.439,3.283,8.736c2.188,2.296,4.951,3.441,8.28,3.441c1.943,0,3.788-0.344,5.548-1.03
	c1.753-0.687,3.436-1.717,5.051-3.105v6.012c-1.431,1.03-2.992,1.801-4.684,2.305c-1.69,0.511-3.52,0.763-5.486,0.763
	c-2.511,0-4.829-0.412-6.956-1.229c-2.136-0.823-4.003-2.029-5.617-3.624c-1.6-1.563-2.824-3.41-3.688-5.531
	c-0.857-2.121-1.286-4.387-1.286-6.783c0-2.403,0.429-4.654,1.286-6.76c0.864-2.113,2.104-3.96,3.734-5.555
	c1.63-1.61,3.497-2.831,5.602-3.654c2.104-0.832,4.385-1.244,6.834-1.244c1.928,0,3.765,0.282,5.51,0.839
	c1.752,0.564,3.443,1.411,5.089,2.548L343.168,71.917z"/>
</svg>
